<svg width="24" height="24" viewBox="0 0 24 24" fill="none" xmlns="http://www.w3.org/2000/svg">
<path d="M21.855 18.482C20.6697 16.5232 20.0293 14.2833 20 11.994V8.006C20 5.88426 19.1571 3.84943 17.6569 2.34914C16.1566 0.848851 14.1217 0.0059967 12 0.0059967C9.87827 0.0059967 7.84344 0.848851 6.34315 2.34914C4.84286 3.84943 4 5.88426 4 8.006V11.988C3.97171 14.2793 3.33126 16.5214 2.145 18.482C2.05317 18.6336 2.0033 18.807 2.00051 18.9842C1.99771 19.1615 2.04208 19.3363 2.12908 19.4907C2.21608 19.6452 2.34258 19.7738 2.49561 19.8633C2.64865 19.9527 2.82272 19.9999 3 20H21C21.1773 19.9999 21.3514 19.9527 21.5044 19.8633C21.6574 19.7738 21.7839 19.6452 21.8709 19.4907C21.9579 19.3363 22.0023 19.1615 21.9995 18.9842C21.9967 18.807 21.9468 18.6336 21.855 18.482Z" fill="#898989"/>
<path d="M13.007 23.825C13.4261 23.6757 13.8068 23.435 14.1214 23.1204C14.436 22.8058 14.6767 22.4251 14.826 22.006H9.174C9.30623 22.3771 9.51027 22.7186 9.77446 23.0108C10.0387 23.3031 10.3578 23.5404 10.7138 23.7094C11.0697 23.8783 11.4554 23.9754 11.8489 23.9953C12.2424 24.0151 12.6359 23.9572 13.007 23.825Z" fill="#898989"/>
</svg>
