<svg width="24" height="24" viewBox="0 0 24 24" fill="none" xmlns="http://www.w3.org/2000/svg">
<path d="M10 19C8.21997 19 6.47991 18.4722 4.99987 17.4832C3.51983 16.4943 2.36628 15.0887 1.68509 13.4441C1.0039 11.7996 0.82567 9.99001 1.17294 8.24418C1.5202 6.49835 2.37737 4.89471 3.63604 3.63604C4.89472 2.37736 6.49836 1.5202 8.24419 1.17293C9.99002 0.825662 11.7996 1.00389 13.4442 1.68508C15.0887 2.36627 16.4943 3.51982 17.4832 4.99986C18.4722 6.47991 19 8.21996 19 10C18.9971 12.3861 18.0479 14.6735 16.3608 16.3607C14.6736 18.0479 12.3861 18.9971 10 19ZM10 3C8.61553 3 7.26216 3.41054 6.11101 4.17971C4.95987 4.94888 4.06266 6.04213 3.53285 7.32121C3.00303 8.6003 2.86441 10.0078 3.13451 11.3656C3.4046 12.7235 4.07129 13.9708 5.05026 14.9497C6.02922 15.9287 7.2765 16.5954 8.63437 16.8655C9.99224 17.1356 11.3997 16.997 12.6788 16.4672C13.9579 15.9373 15.0511 15.0401 15.8203 13.889C16.5895 12.7378 17 11.3845 17 10C16.9979 8.14413 16.2597 6.36488 14.9474 5.05259C13.6351 3.74029 11.8559 3.00211 10 3Z" fill="#898989"/>
<path d="M7 10H5C5.00159 8.67441 5.52888 7.40356 6.46622 6.46622C7.40356 5.52888 8.67441 5.00159 10 5V7C9.20435 7 8.44129 7.31607 7.87868 7.87868C7.31607 8.44129 7 9.20435 7 10Z" fill="#898989"/>
<path d="M22.707 21.293L18.451 17.037C18.0237 17.5504 17.5504 18.0237 17.037 18.451L21.293 22.707C21.4816 22.8892 21.7342 22.99 21.9964 22.9877C22.2586 22.9854 22.5094 22.8802 22.6948 22.6948C22.8802 22.5094 22.9854 22.2586 22.9877 21.9964C22.99 21.7342 22.8892 21.4816 22.707 21.293Z" fill="#898989"/>
</svg>
